<mxfile host="app.diagrams.net" agent="Mozilla/5.0 (Windows NT 10.0; Win64; x64) AppleWebKit/537.36 (KHTML, like Gecko) Chrome/129.0.0.0 Safari/537.36" version="24.8.0">
  <diagram name="Page-1" id="1JK65CEf9W6w9NGkC5tt">
    <mxGraphModel dx="794" dy="446" grid="1" gridSize="10" guides="1" tooltips="1" connect="1" arrows="1" fold="1" page="1" pageScale="1" pageWidth="850" pageHeight="1100" math="0" shadow="0">
      <root>
        <mxCell id="0" />
        <mxCell id="1" parent="0" />
        <mxCell id="mXCHNBKydUMq2TIaZn8N-25" style="edgeStyle=orthogonalEdgeStyle;rounded=0;orthogonalLoop=1;jettySize=auto;html=1;exitX=0.5;exitY=1;exitDx=0;exitDy=0;entryX=0.5;entryY=0;entryDx=0;entryDy=0;" edge="1" parent="1" source="mXCHNBKydUMq2TIaZn8N-1" target="mXCHNBKydUMq2TIaZn8N-2">
          <mxGeometry relative="1" as="geometry" />
        </mxCell>
        <mxCell id="mXCHNBKydUMq2TIaZn8N-1" value="mulai" style="ellipse;whiteSpace=wrap;html=1;" vertex="1" parent="1">
          <mxGeometry x="40" y="40" width="120" height="80" as="geometry" />
        </mxCell>
        <mxCell id="mXCHNBKydUMq2TIaZn8N-26" style="edgeStyle=orthogonalEdgeStyle;rounded=0;orthogonalLoop=1;jettySize=auto;html=1;exitX=0.5;exitY=1;exitDx=0;exitDy=0;entryX=0.5;entryY=0;entryDx=0;entryDy=0;" edge="1" parent="1" source="mXCHNBKydUMq2TIaZn8N-2" target="mXCHNBKydUMq2TIaZn8N-3">
          <mxGeometry relative="1" as="geometry" />
        </mxCell>
        <mxCell id="mXCHNBKydUMq2TIaZn8N-2" value="usia" style="shape=parallelogram;perimeter=parallelogramPerimeter;whiteSpace=wrap;html=1;fixedSize=1;" vertex="1" parent="1">
          <mxGeometry x="40" y="160" width="120" height="60" as="geometry" />
        </mxCell>
        <mxCell id="mXCHNBKydUMq2TIaZn8N-9" style="edgeStyle=orthogonalEdgeStyle;rounded=0;orthogonalLoop=1;jettySize=auto;html=1;exitX=1;exitY=0.5;exitDx=0;exitDy=0;entryX=0;entryY=0.5;entryDx=0;entryDy=0;" edge="1" parent="1" source="mXCHNBKydUMq2TIaZn8N-3" target="mXCHNBKydUMq2TIaZn8N-8">
          <mxGeometry relative="1" as="geometry" />
        </mxCell>
        <mxCell id="mXCHNBKydUMq2TIaZn8N-3" value="apakah usia&lt;div&gt;0-6 tahun?&lt;/div&gt;" style="rounded=0;whiteSpace=wrap;html=1;" vertex="1" parent="1">
          <mxGeometry x="40" y="260" width="120" height="60" as="geometry" />
        </mxCell>
        <mxCell id="mXCHNBKydUMq2TIaZn8N-13" style="edgeStyle=orthogonalEdgeStyle;rounded=0;orthogonalLoop=1;jettySize=auto;html=1;exitX=0.5;exitY=1;exitDx=0;exitDy=0;entryX=0;entryY=0.5;entryDx=0;entryDy=0;" edge="1" parent="1" source="mXCHNBKydUMq2TIaZn8N-4" target="mXCHNBKydUMq2TIaZn8N-12">
          <mxGeometry relative="1" as="geometry" />
        </mxCell>
        <mxCell id="mXCHNBKydUMq2TIaZn8N-4" value="apakah usia&lt;div&gt;7-12 tahun?&lt;/div&gt;" style="rounded=0;whiteSpace=wrap;html=1;" vertex="1" parent="1">
          <mxGeometry x="40" y="360" width="120" height="60" as="geometry" />
        </mxCell>
        <mxCell id="mXCHNBKydUMq2TIaZn8N-22" style="edgeStyle=orthogonalEdgeStyle;rounded=0;orthogonalLoop=1;jettySize=auto;html=1;exitX=0.5;exitY=1;exitDx=0;exitDy=0;entryX=0.5;entryY=0;entryDx=0;entryDy=0;" edge="1" parent="1" source="mXCHNBKydUMq2TIaZn8N-5" target="mXCHNBKydUMq2TIaZn8N-21">
          <mxGeometry relative="1" as="geometry" />
        </mxCell>
        <mxCell id="mXCHNBKydUMq2TIaZn8N-5" value="apakah usia&lt;div&gt;&amp;gt;=60 tahun?&lt;/div&gt;" style="rounded=0;whiteSpace=wrap;html=1;" vertex="1" parent="1">
          <mxGeometry x="40" y="840" width="120" height="60" as="geometry" />
        </mxCell>
        <mxCell id="mXCHNBKydUMq2TIaZn8N-19" style="edgeStyle=orthogonalEdgeStyle;rounded=0;orthogonalLoop=1;jettySize=auto;html=1;exitX=0.5;exitY=1;exitDx=0;exitDy=0;entryX=0;entryY=0.5;entryDx=0;entryDy=0;" edge="1" parent="1" source="mXCHNBKydUMq2TIaZn8N-6" target="mXCHNBKydUMq2TIaZn8N-15">
          <mxGeometry relative="1" as="geometry" />
        </mxCell>
        <mxCell id="mXCHNBKydUMq2TIaZn8N-6" value="apakah usia&lt;div&gt;19-59 tahun?&lt;/div&gt;" style="rounded=0;whiteSpace=wrap;html=1;" vertex="1" parent="1">
          <mxGeometry x="40" y="680" width="120" height="60" as="geometry" />
        </mxCell>
        <mxCell id="mXCHNBKydUMq2TIaZn8N-17" style="edgeStyle=orthogonalEdgeStyle;rounded=0;orthogonalLoop=1;jettySize=auto;html=1;exitX=0.5;exitY=1;exitDx=0;exitDy=0;entryX=0;entryY=0.5;entryDx=0;entryDy=0;" edge="1" parent="1" source="mXCHNBKydUMq2TIaZn8N-7" target="mXCHNBKydUMq2TIaZn8N-16">
          <mxGeometry relative="1" as="geometry" />
        </mxCell>
        <mxCell id="mXCHNBKydUMq2TIaZn8N-7" value="apakah usia&lt;div&gt;13-18 tahun?&lt;/div&gt;" style="rounded=0;whiteSpace=wrap;html=1;" vertex="1" parent="1">
          <mxGeometry x="40" y="520" width="120" height="60" as="geometry" />
        </mxCell>
        <mxCell id="mXCHNBKydUMq2TIaZn8N-11" style="edgeStyle=orthogonalEdgeStyle;rounded=0;orthogonalLoop=1;jettySize=auto;html=1;exitX=0.5;exitY=1;exitDx=0;exitDy=0;entryX=1;entryY=0.5;entryDx=0;entryDy=0;" edge="1" parent="1" source="mXCHNBKydUMq2TIaZn8N-8" target="mXCHNBKydUMq2TIaZn8N-4">
          <mxGeometry relative="1" as="geometry" />
        </mxCell>
        <mxCell id="mXCHNBKydUMq2TIaZn8N-31" style="edgeStyle=orthogonalEdgeStyle;rounded=0;orthogonalLoop=1;jettySize=auto;html=1;exitX=1;exitY=0.5;exitDx=0;exitDy=0;" edge="1" parent="1" source="mXCHNBKydUMq2TIaZn8N-8" target="mXCHNBKydUMq2TIaZn8N-27">
          <mxGeometry relative="1" as="geometry" />
        </mxCell>
        <mxCell id="mXCHNBKydUMq2TIaZn8N-8" value="if" style="rhombus;whiteSpace=wrap;html=1;" vertex="1" parent="1">
          <mxGeometry x="250" y="250" width="80" height="80" as="geometry" />
        </mxCell>
        <mxCell id="mXCHNBKydUMq2TIaZn8N-14" style="edgeStyle=orthogonalEdgeStyle;rounded=0;orthogonalLoop=1;jettySize=auto;html=1;exitX=0.5;exitY=1;exitDx=0;exitDy=0;entryX=1;entryY=0.5;entryDx=0;entryDy=0;" edge="1" parent="1" source="mXCHNBKydUMq2TIaZn8N-12" target="mXCHNBKydUMq2TIaZn8N-7">
          <mxGeometry relative="1" as="geometry" />
        </mxCell>
        <mxCell id="mXCHNBKydUMq2TIaZn8N-32" style="edgeStyle=orthogonalEdgeStyle;rounded=0;orthogonalLoop=1;jettySize=auto;html=1;exitX=1;exitY=0.5;exitDx=0;exitDy=0;entryX=0;entryY=0.5;entryDx=0;entryDy=0;" edge="1" parent="1" source="mXCHNBKydUMq2TIaZn8N-12" target="mXCHNBKydUMq2TIaZn8N-28">
          <mxGeometry relative="1" as="geometry" />
        </mxCell>
        <mxCell id="mXCHNBKydUMq2TIaZn8N-12" value="if" style="rhombus;whiteSpace=wrap;html=1;" vertex="1" parent="1">
          <mxGeometry x="250" y="430" width="80" height="80" as="geometry" />
        </mxCell>
        <mxCell id="mXCHNBKydUMq2TIaZn8N-20" style="edgeStyle=orthogonalEdgeStyle;rounded=0;orthogonalLoop=1;jettySize=auto;html=1;exitX=0.5;exitY=1;exitDx=0;exitDy=0;entryX=1;entryY=0.5;entryDx=0;entryDy=0;" edge="1" parent="1" source="mXCHNBKydUMq2TIaZn8N-15" target="mXCHNBKydUMq2TIaZn8N-5">
          <mxGeometry relative="1" as="geometry" />
        </mxCell>
        <mxCell id="mXCHNBKydUMq2TIaZn8N-41" style="edgeStyle=orthogonalEdgeStyle;rounded=0;orthogonalLoop=1;jettySize=auto;html=1;exitX=1;exitY=0.5;exitDx=0;exitDy=0;entryX=0;entryY=0.5;entryDx=0;entryDy=0;" edge="1" parent="1" source="mXCHNBKydUMq2TIaZn8N-15" target="mXCHNBKydUMq2TIaZn8N-30">
          <mxGeometry relative="1" as="geometry" />
        </mxCell>
        <mxCell id="mXCHNBKydUMq2TIaZn8N-15" value="if" style="rhombus;whiteSpace=wrap;html=1;" vertex="1" parent="1">
          <mxGeometry x="250" y="750" width="80" height="80" as="geometry" />
        </mxCell>
        <mxCell id="mXCHNBKydUMq2TIaZn8N-18" style="edgeStyle=orthogonalEdgeStyle;rounded=0;orthogonalLoop=1;jettySize=auto;html=1;exitX=0.5;exitY=1;exitDx=0;exitDy=0;entryX=1;entryY=0.5;entryDx=0;entryDy=0;" edge="1" parent="1" source="mXCHNBKydUMq2TIaZn8N-16" target="mXCHNBKydUMq2TIaZn8N-6">
          <mxGeometry relative="1" as="geometry" />
        </mxCell>
        <mxCell id="mXCHNBKydUMq2TIaZn8N-33" style="edgeStyle=orthogonalEdgeStyle;rounded=0;orthogonalLoop=1;jettySize=auto;html=1;exitX=1;exitY=0.5;exitDx=0;exitDy=0;entryX=0;entryY=0.5;entryDx=0;entryDy=0;" edge="1" parent="1" source="mXCHNBKydUMq2TIaZn8N-16" target="mXCHNBKydUMq2TIaZn8N-29">
          <mxGeometry relative="1" as="geometry" />
        </mxCell>
        <mxCell id="mXCHNBKydUMq2TIaZn8N-16" value="if" style="rhombus;whiteSpace=wrap;html=1;" vertex="1" parent="1">
          <mxGeometry x="250" y="590" width="80" height="80" as="geometry" />
        </mxCell>
        <mxCell id="mXCHNBKydUMq2TIaZn8N-24" style="edgeStyle=orthogonalEdgeStyle;rounded=0;orthogonalLoop=1;jettySize=auto;html=1;exitX=1;exitY=0.5;exitDx=0;exitDy=0;" edge="1" parent="1" source="mXCHNBKydUMq2TIaZn8N-21" target="mXCHNBKydUMq2TIaZn8N-23">
          <mxGeometry relative="1" as="geometry" />
        </mxCell>
        <mxCell id="mXCHNBKydUMq2TIaZn8N-21" value="kategori&lt;div&gt;lansia&lt;/div&gt;" style="shape=parallelogram;perimeter=parallelogramPerimeter;whiteSpace=wrap;html=1;fixedSize=1;" vertex="1" parent="1">
          <mxGeometry x="40" y="950" width="120" height="60" as="geometry" />
        </mxCell>
        <mxCell id="mXCHNBKydUMq2TIaZn8N-23" value="selesai" style="ellipse;whiteSpace=wrap;html=1;" vertex="1" parent="1">
          <mxGeometry x="210" y="940" width="120" height="80" as="geometry" />
        </mxCell>
        <mxCell id="mXCHNBKydUMq2TIaZn8N-27" value="kategori&lt;div&gt;bayi / balita&lt;/div&gt;" style="shape=parallelogram;perimeter=parallelogramPerimeter;whiteSpace=wrap;html=1;fixedSize=1;" vertex="1" parent="1">
          <mxGeometry x="420" y="260" width="120" height="60" as="geometry" />
        </mxCell>
        <mxCell id="mXCHNBKydUMq2TIaZn8N-28" value="kategori&lt;div&gt;anak - anak&lt;/div&gt;" style="shape=parallelogram;perimeter=parallelogramPerimeter;whiteSpace=wrap;html=1;fixedSize=1;" vertex="1" parent="1">
          <mxGeometry x="420" y="440" width="120" height="60" as="geometry" />
        </mxCell>
        <mxCell id="mXCHNBKydUMq2TIaZn8N-29" value="kategori&lt;div&gt;remaja&lt;/div&gt;" style="shape=parallelogram;perimeter=parallelogramPerimeter;whiteSpace=wrap;html=1;fixedSize=1;" vertex="1" parent="1">
          <mxGeometry x="420" y="600" width="120" height="60" as="geometry" />
        </mxCell>
        <mxCell id="mXCHNBKydUMq2TIaZn8N-30" value="kategori&lt;div&gt;dewasa&lt;/div&gt;" style="shape=parallelogram;perimeter=parallelogramPerimeter;whiteSpace=wrap;html=1;fixedSize=1;" vertex="1" parent="1">
          <mxGeometry x="420" y="760" width="120" height="60" as="geometry" />
        </mxCell>
        <mxCell id="mXCHNBKydUMq2TIaZn8N-35" value="YA" style="text;html=1;align=center;verticalAlign=middle;resizable=0;points=[];autosize=1;strokeColor=none;fillColor=none;" vertex="1" parent="1">
          <mxGeometry x="360" y="268" width="40" height="30" as="geometry" />
        </mxCell>
        <mxCell id="mXCHNBKydUMq2TIaZn8N-36" value="TIDAK" style="text;html=1;align=center;verticalAlign=middle;resizable=0;points=[];autosize=1;strokeColor=none;fillColor=none;" vertex="1" parent="1">
          <mxGeometry x="190" y="368" width="60" height="30" as="geometry" />
        </mxCell>
        <mxCell id="mXCHNBKydUMq2TIaZn8N-37" value="YA" style="text;html=1;align=center;verticalAlign=middle;resizable=0;points=[];autosize=1;strokeColor=none;fillColor=none;" vertex="1" parent="1">
          <mxGeometry x="360" y="770" width="40" height="30" as="geometry" />
        </mxCell>
        <mxCell id="mXCHNBKydUMq2TIaZn8N-38" value="YA" style="text;html=1;align=center;verticalAlign=middle;resizable=0;points=[];autosize=1;strokeColor=none;fillColor=none;" vertex="1" parent="1">
          <mxGeometry x="360" y="610" width="40" height="30" as="geometry" />
        </mxCell>
        <mxCell id="mXCHNBKydUMq2TIaZn8N-39" value="YA" style="text;html=1;align=center;verticalAlign=middle;resizable=0;points=[];autosize=1;strokeColor=none;fillColor=none;" vertex="1" parent="1">
          <mxGeometry x="360" y="450" width="40" height="30" as="geometry" />
        </mxCell>
        <mxCell id="mXCHNBKydUMq2TIaZn8N-42" value="TIDAK" style="text;html=1;align=center;verticalAlign=middle;resizable=0;points=[];autosize=1;strokeColor=none;fillColor=none;" vertex="1" parent="1">
          <mxGeometry x="190" y="850" width="60" height="30" as="geometry" />
        </mxCell>
        <mxCell id="mXCHNBKydUMq2TIaZn8N-43" value="TIDAK" style="text;html=1;align=center;verticalAlign=middle;resizable=0;points=[];autosize=1;strokeColor=none;fillColor=none;" vertex="1" parent="1">
          <mxGeometry x="190" y="690" width="60" height="30" as="geometry" />
        </mxCell>
        <mxCell id="mXCHNBKydUMq2TIaZn8N-44" value="TIDAK" style="text;html=1;align=center;verticalAlign=middle;resizable=0;points=[];autosize=1;strokeColor=none;fillColor=none;" vertex="1" parent="1">
          <mxGeometry x="190" y="530" width="60" height="30" as="geometry" />
        </mxCell>
      </root>
    </mxGraphModel>
  </diagram>
</mxfile>
